# xmcd CD database file
#
# Track frame offsets:
#	150
#	12353
#	26984
#	41098
#	55758
#	69706
#	79930
#	92357
#	107036
#	120001
#	134846
#	147194
#	158483
#	171878
#	186100
#	203228
#
# Disc length: 2890 seconds
#
# Revision: 0
# Processed by: cddbd v1.5.1PL0 Copyright (c) Steve Scherf et al.
# Submitted via: CDex 1.51
#
DISCID=d80b4810
DTITLE=SWR Big Band - New Aspects
DYEAR=1900
DGENRE=Jazz
TTITLE0=Blues Sisters
TTITLE1=Stay Cool
TTITLE2=Wacky Dog
TTITLE3=Rainbow River
TTITLE4=1000 Miles To Goodland
TTITLE5=Sincerely
TTITLE6=Hypnogroove
TTITLE7=Speedworld
TTITLE8=Brainwash
TTITLE9=Ilaria
TTITLE10=Just A Dream
TTITLE11=The Hipster
TTITLE12=Westward Bound
TTITLE13=For We'll Drive
TTITLE14=My Passion
TTITLE15=Pfiffikus
EXTD=
EXTT0=
EXTT1=
EXTT2=
EXTT3=
EXTT4=
EXTT5=
EXTT6=
EXTT7=
EXTT8=
EXTT9=
EXTT10=
EXTT11=
EXTT12=
EXTT13=
EXTT14=
EXTT15=
PLAYORDER=
